<svg xmlns="http://www.w3.org/2000/svg" width="48" height="63" viewBox="0 0 48 63" fill="none">
  <path d="M6.35522 25.7671L12.809 17.0685L11.9164 23.0274L15.4866 13.3699L22.6955 4.39726L22.2836 9.73973L22.6955 10.5212L26.197 2L33.8866 18.1644L33.6119 13.3699L37.1821 16.863L42.1254 26.863L41.8507 29.0548L44.391 28.2329L46.4507 30.9041L47 34.3288L43.0866 40.0822L38.8298 41.0411L36.2896 46.3151L36.0836 44.6027L32.5821 52.5479L32.5134 50.6301L27.3642 59.8767V55.9726L24.0687 62L17.6836 53.3014V55.4247L12.191 44.8082V46.7945L9.10149 41.0411L5.05075 40.1507L1 34.3288L1.61791 30.9041L3.60896 28.3699L6.90448 29.6712L6.35522 25.7671Z" fill="#0A0A0A" stroke="#FCFCFC" stroke-miterlimit="10"/>
  <path d="M10.0627 29.2603L15.0746 27.5479L17.6149 29.6712L16.1045 27.2055L24.1373 32.7534L32.1461 27.2055L30.6597 29.6712L33.2 27.5479L38.1433 29.2603L39.1045 32.8904L37.2508 36.3151L35.7403 37.137L36.8388 36.9315L35.603 39.3288L32.1015 38.0274L32.3075 37.0685L35.8776 35.0137L36.6026 33.2671L35.603 30.8356L26.3343 33.9178L27.0209 32.274L24 34.9452L21.2537 32.3425L21.9403 33.8493L12.7403 30.8356L11.6137 33.2671L12.3284 35.0137L15.8299 37L15.9672 38.1644L13.0149 39.8082L9.17017 32.8219L10.0627 29.2603Z" fill="#FCFCFC"/>
  <path d="M2.57912 31.2466L3.81494 29.7397L6.90449 30.6986L7.17912 32L4.5015 31.0411L3.88359 31.589L3.54031 33.6438L5.60001 32.9589V36.7945L8.41494 37.8219L8.96419 39.8767L5.39404 38.6438L2.16718 33.8493L2.57912 31.2466Z" fill="#FCFCFC"/>
  <path d="M41.2328 30.6986L44.3224 29.7397L45.5582 31.1781L45.9701 33.9178L42.7433 38.6438L39.2418 39.8767L39.791 37.8219L42.5373 36.7945V32.8904L44.597 33.7123L44.3224 31.6575L43.7731 31.0411L40.9582 32L41.2328 30.6986Z" fill="#FCFCFC"/>
  <path d="M15.1557 39.8767L18.0956 38.3014L20.7732 40.9041L19.812 38.5753L22.8329 36.726L23.9314 37.6849L25.0031 36.726L28.1195 38.6438L27.1445 40.9041L29.8359 38.3699L32.7195 39.4658L34.2986 41.863L33.2687 44.5343L16.6538 47.137L14.3195 42.6849L15.1557 39.8767Z" fill="#FCFCFC"/>
  <path d="M17.3403 48.3014L32.8567 45.3562L29.3553 50.9726V48.6438L26.1284 52.6164L23.3821 49.7397L22.215 54.9452L17.3403 48.3014Z" fill="#FCFCFC"/>
  <path d="M20.8418 38.7808L22.6955 37.6849L23.4508 38.3014L20.8418 38.7808Z" fill="#0A0A0A"/>
  <path d="M25.1672 37.548L27.021 38.7123L24.5493 38.3699L25.1672 37.548Z" fill="#0A0A0A"/>
  <path d="M14.8687 23.5753L19.6746 13.6438L22.2149 16.4521L25.6478 10.8356L32.994 21.9315L25.5791 13.6438L22.3522 18.9178L20.0866 16.3836L14.8687 23.5753Z" fill="#FF7830"/>
  <path d="M17.1343 22.9589L20.2239 18.7123L22.7642 20.6302L25.7164 15.9041L30.3851 21.0411L25.9224 17.7534L23.1075 22.274L20.2925 20.2192L17.1343 23.0439" fill="#FF7830"/>
</svg>